<?xml version="1.0" encoding="UTF-8" standalone="no"?>
<svg width="16px" height="12px" viewBox="0 0 16 12" version="1.1" xmlns="http://www.w3.org/2000/svg" xmlns:xlink="http://www.w3.org/1999/xlink">
    <!-- Generator: Sketch 39.1 (31720) - http://www.bohemiancoding.com/sketch -->
    <title>shape</title>
    <desc>Created with Sketch.</desc>
    <defs></defs>
    <g id="Symbols" stroke="none" stroke-width="1" fill="none" fill-rule="evenodd">
        <g id="icons-/-social" transform="translate(-53.000000, -2.000000)" fill="#FFFFFF">
            <path d="M68.7560585,4.18253341 C68.4514033,2.89233367 67.8794448,2.39517172 66.8268021,2.21554821 C66.2198347,2.12124587 63.3066968,2 60.9948217,2 L61.0051783,2.00003592 C58.6933372,2.00003592 55.7801653,2.12128179 55.1731979,2.21558414 C54.1205552,2.39520764 53.5486306,2.89236959 53.2439754,4.18256933 C53.1414956,4.61653973 53,6.99356948 53,7.90063227 L53,8.0993318 C53,9.00643052 53.1414956,11.3834603 53.2439754,11.8174307 C53.5486306,13.1076304 54.1205552,13.6047924 55.1731979,13.7844159 C55.7801653,13.8787182 58.6933372,13.9999641 61.0051783,13.9999641 L60.9948217,14 C63.3066968,14 66.2198347,13.8787541 66.8268021,13.7844518 C67.8794448,13.6048283 68.4514033,13.1076304 68.7560585,11.8174307 C68.8585384,11.3834603 69,9.00646645 69,8.0993318 L69,7.90063227 C69,6.99353355 68.8585384,4.61653973 68.7560585,4.18253341 Z M59.3385053,5.56854433 L63.5887032,7.91561288 L59.3385053,10.3764909 L59.3385053,5.56854433 Z" id="shape"></path>
        </g>
    </g>
</svg>