<?xml version="1.0" encoding="UTF-8" standalone="no"?>
<svg width="16px" height="16px" viewBox="0 0 16 16" version="1.1" xmlns="http://www.w3.org/2000/svg" xmlns:xlink="http://www.w3.org/1999/xlink">
    <!-- Generator: Sketch 39.1 (31720) - http://www.bohemiancoding.com/sketch -->
    <title>icon-instagram</title>
    <desc>Created with Sketch.</desc>
    <defs></defs>
    <g id="Symbols" stroke="none" stroke-width="1" fill="none" fill-rule="evenodd">
        <g id="icons-/-social" transform="translate(-105.000000, 0.000000)" fill="#FFFFFF">
            <path d="M105,4.26668826 C105,1.9102614 106.914081,0 109.266688,0 L116.733312,0 C119.089739,0 121,1.91408142 121,4.26668826 L121,11.7333117 C121,14.0897386 119.085919,16 116.733312,16 L109.266688,16 C106.910261,16 105,14.0859186 105,11.7333117 L105,4.26668826 Z M106.6,4.26771877 C106.6,2.79437838 107.792699,1.6 109.267719,1.6 L116.732281,1.6 C118.205622,1.6 119.4,2.79269865 119.4,4.26771877 L119.4,11.7322812 C119.4,13.2056216 118.207301,14.4 116.732281,14.4 L109.267719,14.4 C107.794378,14.4 106.6,13.2073014 106.6,11.7322812 L106.6,4.26771877 Z M117.266667,4.8 C117.85577,4.8 118.333333,4.32243707 118.333333,3.73333333 C118.333333,3.1442296 117.85577,2.66666667 117.266667,2.66666667 C116.677563,2.66666667 116.2,3.1442296 116.2,3.73333333 C116.2,4.32243707 116.677563,4.8 117.266667,4.8 Z M113,12.2666667 C115.356415,12.2666667 117.266667,10.3564149 117.266667,8 C117.266667,5.64358507 115.356415,3.73333333 113,3.73333333 C110.643585,3.73333333 108.733333,5.64358507 108.733333,8 C108.733333,10.3564149 110.643585,12.2666667 113,12.2666667 Z M113,10.6666667 C114.472759,10.6666667 115.666667,9.47275933 115.666667,8 C115.666667,6.52724067 114.472759,5.33333333 113,5.33333333 C111.527241,5.33333333 110.333333,6.52724067 110.333333,8 C110.333333,9.47275933 111.527241,10.6666667 113,10.6666667 Z" id="icon-instagram"></path>
        </g>
    </g>
</svg>